# xmcd CD database file
#
# Track frame offsets:
#	150
#	16998
#	50366
#	89134
#	107898
#	138249
#
# Disc length: 2791 seconds
#
# Revision: 1
# Processed by: cddbd v1.5.2PL0 Copyright (c) Steve Scherf et al.
# Submitted via: CDex 1.51
#
DISCID=4c0ae506
DTITLE=Albert King - Blues From The Road - Disc 2
DYEAR=2003
DGENRE=Blues
TTITLE0=Watermelon Man
TTITLE1=Stormy Monday
TTITLE2=Don't Burn Down the Bridge
TTITLE3=I'm Gonna Call You as Soon as the Sun Goes Down
TTITLE4=I'll Play the Blues for You
TTITLE5=Jam in A-Flat 
EXTD=YEAR: 2003
EXTT0=
EXTT1=
EXTT2=
EXTT3=
EXTT4=
EXTT5=
PLAYORDER=
